PathFileType	4	(X/Y/Z)	C:/Users/beibeiliu/ov580/test_trc/User2\sequence.41_training_dense_right.trc
DataRate	CameraRate	NumFrames	NumMarkers	Units	OrigDataRate	OrigDataStartFrame	OrigNumFrames
120	120	14	19	mm	120	142	170
Frame#	Time	ThumbCMC			ThumbMCP			ThumbIP			ThumbTip			IndexMCP			IndexPIP			IndexTip			MiddleMCP			MiddlePIP			MiddleTip			RingMCP			RingPIP			RingTip			PinkyMCP			PinkyPIP			PinkyTip			BackHand1			BackHand2			BackHand3	
		X0	Y0	Z0	X1	Y1	Z1	X2	Y2	Z2	X3	Y3	Z3	X4	Y4	Z4	X5	Y5	Z5	X6	Y6	Z6	X7	Y7	Z7	X8	Y8	Z8	X9	Y9	Z9	X10	Y10	Z10	X11	Y11	Z11	X12	Y12	Z12	X13	Y13	Z13	X14	Y14	Z14	X15	Y15	Z15	X16	Y16	Z16	X17	Y17	Z17	X18	Y18	Z18	
141	1.175	105.583	78.8416	-0.349002	70.0459	93.8397	-15.1637	39.7607	103.192	-32.4566	21.3649	85.4914	-45.3265	99.1551	70.4355	-87.7261	76.6088	75.3547	-108.421	45.9305	86.4708	-110.325	85.6993	44.3035	-91.0812	57.8607	61.4995	-111.934	24.244	72.6576	-100.877	73.015	26.2386	-87.695	46.0001	32.7036	-103.829	22.2474	52.5976	-99.9303	59.497	1.2438	-61.8296	34.1907	4.8239	-84.2241	11.0566	15.0215	-92.2262	103.973	14.1334	-36.1757	117.039	3.02084	-4.9631	124.825	38.4679	-22.671	
142	1.18333	104.171	79.3903	-5.05154	70.9411	97.3174	-13.733	39.7038	102.535	-32.888	21.1459	86.4501	-44.7443	99.3807	67.5665	-86.631	79.4724	78.4881	-108.447	49.0815	89.5208	-112.468	87.7396	45.3462	-94.0642	60.6866	56.079	-113.773	24.3472	74.4327	-102.47	71.1591	24.8291	-88.742	50.6651	34.0613	-103.858	18.2282	55.5179	-98.7693	58.2731	3.88883	-64.5796	35.9476	8.38303	-83.2515	7.82349	19.0686	-91.5383	103.895	13.9006	-32.3451	115.845	2.8313	-9.09729	128.135	41.6506	-24.0156	
143	1.19167	104.183	76.4502	-6.16065	71.3868	95.1499	-13.8372	38.0062	100.13	-34.2936	20.3045	80.9855	-50.0145	100.221	68.5531	-84.5381	76.3318	79.8915	-109.823	45.4526	87.3855	-110.137	88.9237	44.3872	-92.2554	60.3841	55.7303	-114.536	26.452	75.4626	-101.458	71.9448	25.7654	-83.6401	40.7047	36.1202	-101.503	18.1583	57.2166	-94.1223	57.7907	5.75498	-62.2632	31.797	11.506	-79.7815	9.37865	31.3686	-88.6768	104.621	14.6212	-38.4675	117.515	6.39485	-3.55621	124.996	41.5949	-23.7023	
144	1.2	105.605	75.8303	-1.14455	68.8662	94.3509	-14.9025	38.3853	93.4926	-34.1628	18.7935	77.5848	-48.3334	97.2658	67.9036	-87.7995	72.108	75.215	-109.145	45.3701	89.9159	-108.208	88.2211	46.4647	-90.6805	56.6915	57.3161	-112.418	26.9827	74.2699	-97.294	65.6156	27.5174	-85.113	39.6255	36.8404	-95.7856	13.0427	60.8004	-81.7128	53.0262	6.71091	-63.0447	25.2605	20.6462	-79.3013	8.46982	38.669	-78.6872	100.331	14.6129	-37.4086	117.855	6.23046	-3.6537	126.242	40.2712	-25.83	
145	1.20833	103.488	75.5879	-2.71448	67.2807	90.6233	-17.7476	35.684	91.9566	-34.5077	18.9588	71.954	-49.1008	93.4822	65.1384	-87.2003	72.8988	74.7456	-108.111	41.4848	89.2001	-105.432	86.1046	43.9885	-90.899	55.4542	56.9043	-111.913	25.058	72.5704	-91.1748	63.0257	29.1879	-83.52	33.3332	42.6461	-92.3503	12.2635	62.3477	-71.7289	52.2423	10.8444	-62.6389	24.8767	23.9533	-74.606	3.10571	44.4813	-67.2025	99.2977	10.3368	-33.9553	115.468	5.76376	-5.28455	124.114	37.9405	-24.3859	
146	1.21667	102.024	75.2206	-6.39859	68.5973	88.9764	-15.5714	35.6814	88.3677	-36.4128	19.5412	69.6635	-45.826	94.0564	66.6427	-89.2012	73.3935	75.1983	-107.304	37.0443	85.3632	-102.288	83.1007	43.0896	-90.9593	51.2098	55.5632	-109.726	23.4117	73.114	-83.6597	60.2271	27.7656	-80.1305	30.466	43.1096	-87.9241	12.8137	63.0366	-67.3685	47.2144	10.8537	-64.4314	20.9987	28.8856	-71.6939	7.48848	53.4648	-59.7687	100.775	12.6556	-37.9337	112.543	4.98935	-6.2579	123.091	38.6882	-22.1701	
147	1.225	103.584	75.8159	-4.83362	69.049	88.8997	-14.5413	37.7955	88.259	-33.2674	21.7907	68.4512	-44.7047	93.2216	61.3097	-84.9288	70.544	70.6608	-107.081	37.7469	84.2258	-101.598	80.8604	38.8662	-92.3247	49.0902	56.0526	-108.312	25.6965	74.8002	-82.4636	60.6418	28.0683	-79.8786	31.966	40.6061	-87.108	13.8108	62.41	-64.9219	51.5731	12.0156	-60.4481	22.3957	26.3548	-67.9539	6.49308	49.6754	-56.1551	101.304	10.6181	-33.8462	113.944	5.84073	-6.70068	123.315	36.2012	-21.0571	
148	1.23333	105.481	74.1497	-3.12715	69.951	91.4418	-14.9363	38.0494	92.3611	-34.5081	20.573	74.0524	-44.8976	95.1859	63.2108	-86.5912	68.8291	71.2084	-106.46	38.9953	86.0421	-102.514	83.0762	41.2247	-91.3293	53.1638	51.7116	-107.954	24.6136	70.5462	-82.3367	62.3165	28.2279	-81.2533	33.6924	38.4025	-87.8997	16.9406	62.0126	-66.4168	49.7312	9.71034	-62.2366	20.0265	25.3519	-66.2937	8.82008	51.5637	-52.3465	100.194	9.94028	-34.0952	117.101	4.93988	-3.96689	126.125	35.1228	-21.2698	
149	1.24167	106.033	76.643	-0.87175	73.627	90.4968	-9.9122	38.7997	97.3761	-30.4455	21.2917	77.3683	-42.0833	93.915	60.3141	-83.6738	71.5766	68.3907	-104.02	40.264	78.4848	-103.462	84.952	40.4698	-88.487	53.9366	51.6842	-107.486	21.8658	66.9981	-86.5543	65.8792	25.3571	-80.4806	38.56	34.1751	-90.1653	13.4428	56.9415	-70.2612	50.6766	7.31248	-61.4681	22.2584	20.0951	-68.0528	6.05469	44.6116	-57.4807	104.197	9.8481	-32.7936	118.29	2.41435	-3.96624	126.969	39.8276	-22.2392	
150	1.25	105.825	74.52	-0.372443	71.809	90.51	-12.1648	41.9151	98.6535	-26.7591	18.8032	89.1084	-43.4854	93.4008	63.9626	-83.3147	70.8794	72.7246	-104.551	34.4121	82.6856	-101.906	82.9108	38.5925	-90.8158	50.9113	48.7725	-109.11	17.9935	62.8082	-93.8679	69.077	19.848	-80.4622	38.8171	29.6503	-96.2514	15.6736	48.0359	-85.8238	55.347	3.44221	-60.8316	27.4648	9.32313	-70.6653	2.74295	30.0676	-66.9028	105.615	9.70785	-35.7163	120.116	4.16975	-6.48057	125.782	38.4711	-23.05	
151	1.25833	104.274	74.7622	-3.15315	72.4466	91.6913	-9.7295	43.1223	98.9461	-28.9231	20.2874	94.5597	-41.8921	91.5985	66.5956	-83.0934	66.3841	71.0088	-101.895	30.2906	78.9381	-100.279	84.6087	36.9994	-89.8538	55.3509	45.9751	-112.473	21.3682	58.8979	-108.843	70.5455	15.0594	-87.3041	45.0319	22.5407	-103.489	18.9787	36.6484	-100.993	58.401	-4.76049	-63.1862	30.7178	2.83433	-77.8496	4.7543	17.6321	-78.9775	107.778	9.50494	-36.2076	121.822	-0.592787	-4.28616	126.129	38.9262	-22.8823	
152	1.26667	104.297	70.1001	-4.34919	74.5745	89.7203	-11.4242	42.8501	104.968	-31.1564	22.4358	101.392	-45.2696	90.4176	62.9316	-85.6266	64.174	71.7142	-103.369	31.6331	76.2933	-100.71	85.1077	36.3984	-97.9306	58.7235	45.6162	-117.569	23.4519	50.1749	-121.657	77.9995	14.3498	-88.0657	58.0094	20.3919	-108.338	28.7869	32.1881	-116.877	64.9394	-2.41123	-69.2359	36.2828	-1.46368	-86.7267	16.5534	8.65001	-94.852	110.393	3.77524	-38.9511	123.865	4.05557	-6.06719	128.01	39.7037	-22.5957	
153	1.275	106.846	70.0937	-4.57059	75.6476	89.1768	-15.9917	45.467	102.792	-35.8439	22.8884	100.901	-48.6833	90.975	66.1256	-89.8556	63.2164	70.4738	-104.271	31.7033	72.8161	-99.1893	92.1205	37.6297	-96.4401	61.421	42.2202	-122.583	29.1417	52.1901	-131.451	82.6108	15.2279	-95.2089	61.1694	17.9352	-114.805	34.2889	26.1373	-127.196	70.2119	-4.09763	-75.2965	45.981	-1.85901	-94.2523	25.169	8.25361	-108.315	112.345	4.8134	-42.6128	126.139	0.643312	-13.8471	129.445	36.8299	-24.7383	
154	1.28333	104.878	67.4273	-6.09767	74.4283	86.8224	-18.6378	44.9732	97.1266	-36.9229	22.8523	94.3996	-54.0795	86.4848	63.2978	-90.8416	57.783	71.5743	-101.615	27.6548	71.6906	-90.8375	90.9501	35.9523	-99.5043	66.1139	41.0314	-122.625	31.7595	50.6597	-134.871	84.7731	12.7021	-93.211	64.313	13.2812	-115.277	39.7925	26.6612	-131.108	72.1804	-6.38178	-75.4168	52.5683	-4.48136	-95.638	33.21	0.777677	-112.66	112.054	6.77051	-40.6961	124.529	-2.22559	-12.1359	130.643	38.2647	-27.3162	
